<svg xmlns="http://www.w3.org/2000/svg" width="60.031" height="55.38" viewBox="0 0 60.031 55.38">
  <defs>
    <style>
      .cls-1 {
        fill: #65ac5f;
        fill-rule: evenodd;
      }
    </style>
  </defs>
  <path id="icon" class="cls-1" d="M138.629,2957H107.5a5.473,5.473,0,0,0-5.468,5.47c0,39.89-.233,37.44.567,38.24,11.655,11.65,10.916,10.98,11.324,11.18,0.583,0.29-1.012.2,24.706,0.2a5.473,5.473,0,0,0,5.468-5.47v-44.15a5.471,5.471,0,0,0-5.468-5.47h0Zm1.6,49.62a1.6,1.6,0,0,1-1.6,1.6H116.721v-8.88a1.939,1.939,0,0,0-1.936-1.94H105.9v-34.93a1.6,1.6,0,0,1,1.6-1.6h31.129a1.6,1.6,0,0,1,1.6,1.6v44.15Zm-27.376-1.14-4.209-4.21h4.209v4.21Zm40.218-43.01v44.15a5.473,5.473,0,0,1-5.468,5.47,1.935,1.935,0,1,1,0-3.87,1.6,1.6,0,0,0,1.6-1.6v-44.15a1.6,1.6,0,0,0-1.6-1.6,1.935,1.935,0,1,1,0-3.87A5.473,5.473,0,0,1,153.068,2962.47Zm8.971,0v44.15a5.473,5.473,0,0,1-5.468,5.47,1.935,1.935,0,1,1,0-3.87,1.6,1.6,0,0,0,1.6-1.6v-44.15a1.6,1.6,0,0,0-1.6-1.6,1.935,1.935,0,1,1,0-3.87A5.473,5.473,0,0,1,162.039,2962.47Z" transform="translate(-102 -2957)"/>
</svg>
